<?xml version="1.0" encoding="UTF-8"?>
<!DOCTYPE svg PUBLIC "-//W3C//DTD SVG 1.1//EN" "http://www.w3.org/Graphics/SVG/1.1/DTD/svg11.dtd">
<svg xmlns="http://www.w3.org/2000/svg" version="1.1" width="267px" height="499px" style="shape-rendering:geometricPrecision; text-rendering:geometricPrecision; image-rendering:optimizeQuality; fill-rule:evenodd; clip-rule:evenodd" xmlns:xlink="http://www.w3.org/1999/xlink">
<g><path style="opacity:0.949" fill="#ece6e5" d="M 95.5,-0.5 C 132.833,-0.5 170.167,-0.5 207.5,-0.5C 225.914,4.11783 244.581,8.11783 263.5,11.5C 263.5,22.8333 263.5,34.1667 263.5,45.5C 264.5,45.5 265.5,45.5 266.5,45.5C 266.5,81.8333 266.5,118.167 266.5,154.5C 265.167,164.833 265.167,175.167 266.5,185.5C 266.5,204.167 266.5,222.833 266.5,241.5C 265.167,257.5 265.167,273.5 266.5,289.5C 266.5,313.167 266.5,336.833 266.5,360.5C 265.167,376.5 265.167,392.5 266.5,408.5C 266.5,422.5 266.5,436.5 266.5,450.5C 265.5,450.5 264.5,450.5 263.5,450.5C 263.334,460.506 263.5,470.506 264,480.5C 265.188,481.563 265.688,482.897 265.5,484.5C 246.475,488.138 227.475,491.972 208.5,496C 170.835,496.5 133.168,496.667 95.5,496.5C 95.5,481.167 95.5,465.833 95.5,450.5C 69.8317,449.271 44.165,449.271 18.5,450.5C 18.5,402.833 18.5,355.167 18.5,307.5C 13.1667,307.5 7.83333,307.5 2.5,307.5C 2.5,278.833 2.5,250.167 2.5,221.5C 1.5,221.5 0.5,221.5 -0.5,221.5C -0.5,202.167 -0.5,182.833 -0.5,163.5C 0.5,163.5 1.5,163.5 2.5,163.5C 2.5,124.167 2.5,84.8333 2.5,45.5C 33.5,45.5 64.5,45.5 95.5,45.5C 95.5,30.1667 95.5,14.8333 95.5,-0.5 Z"/></g>
</svg>
