<svg width="140" height="140" viewBox="0 0 140 140" fill="none" xmlns="http://www.w3.org/2000/svg">
<circle cx="70" cy="70" r="70" fill="#EDE7E5"/>
<path d="M37.42 80V66.56H34.39V64.58L35.23 64.55C35.93 64.49 36.47 64.29 36.85 63.95C37.25 63.59 37.59 63.03 37.87 62.27H40.9V80H37.42ZM48.0838 80.39C47.1038 80.37 46.2338 80.17 45.4738 79.79C44.7338 79.39 44.1538 78.76 43.7338 77.9C43.3138 77.02 43.1038 75.86 43.1038 74.42V67.22C43.1038 65.46 43.5638 64.16 44.4838 63.32C45.4238 62.48 46.6438 62.06 48.1438 62.06C49.5838 62.06 50.7538 62.48 51.6538 63.32C52.5738 64.16 53.0338 65.46 53.0338 67.22V74.39C53.0338 75.87 52.8238 77.05 52.4038 77.93C52.0038 78.81 51.4238 79.44 50.6638 79.82C49.9238 80.2 49.0638 80.39 48.0838 80.39ZM48.0838 78.32C48.5238 78.32 48.8838 78.15 49.1638 77.81C49.4438 77.45 49.5838 76.92 49.5838 76.22V66.26C49.5838 65.56 49.4338 65.04 49.1338 64.7C48.8538 64.34 48.5038 64.16 48.0838 64.16C47.6638 64.16 47.3038 64.34 47.0038 64.7C46.7238 65.04 46.5838 65.56 46.5838 66.26V76.22C46.5838 76.92 46.7238 77.45 47.0038 77.81C47.3038 78.15 47.6638 78.32 48.0838 78.32ZM59.8612 80.39C58.8812 80.37 58.0112 80.17 57.2512 79.79C56.5112 79.39 55.9312 78.76 55.5112 77.9C55.0912 77.02 54.8812 75.86 54.8812 74.42V67.22C54.8812 65.46 55.3412 64.16 56.2612 63.32C57.2012 62.48 58.4212 62.06 59.9212 62.06C61.3612 62.06 62.5312 62.48 63.4312 63.32C64.3512 64.16 64.8112 65.46 64.8112 67.22V74.39C64.8112 75.87 64.6012 77.05 64.1812 77.93C63.7812 78.81 63.2012 79.44 62.4412 79.82C61.7012 80.2 60.8412 80.39 59.8612 80.39ZM59.8612 78.32C60.3012 78.32 60.6612 78.15 60.9412 77.81C61.2212 77.45 61.3612 76.92 61.3612 76.22V66.26C61.3612 65.56 61.2112 65.04 60.9112 64.7C60.6312 64.34 60.2812 64.16 59.8612 64.16C59.4412 64.16 59.0812 64.34 58.7812 64.7C58.5012 65.04 58.3612 65.56 58.3612 66.26V76.22C58.3612 76.92 58.5012 77.45 58.7812 77.81C59.0812 78.15 59.4412 78.32 59.8612 78.32ZM71.6385 80.39C70.6585 80.37 69.7885 80.17 69.0285 79.79C68.2885 79.39 67.7085 78.76 67.2885 77.9C66.8685 77.02 66.6585 75.86 66.6585 74.42V67.22C66.6585 65.46 67.1185 64.16 68.0385 63.32C68.9785 62.48 70.1985 62.06 71.6985 62.06C73.1385 62.06 74.3085 62.48 75.2085 63.32C76.1285 64.16 76.5885 65.46 76.5885 67.22V74.39C76.5885 75.87 76.3785 77.05 75.9585 77.93C75.5585 78.81 74.9785 79.44 74.2185 79.82C73.4785 80.2 72.6185 80.39 71.6385 80.39ZM71.6385 78.32C72.0785 78.32 72.4385 78.15 72.7185 77.81C72.9985 77.45 73.1385 76.92 73.1385 76.22V66.26C73.1385 65.56 72.9885 65.04 72.6885 64.7C72.4085 64.34 72.0585 64.16 71.6385 64.16C71.2185 64.16 70.8585 64.34 70.5585 64.7C70.2785 65.04 70.1385 65.56 70.1385 66.26V76.22C70.1385 76.92 70.2785 77.45 70.5585 77.81C70.8585 78.15 71.2185 78.32 71.6385 78.32ZM83.4763 80V65.15H87.7063L90.0463 75.71L92.3863 65.15H96.5863V80H93.7963V69.59L91.2163 80H88.8763L86.2663 69.59V80H83.4763ZM98.3249 72.89V71.39C98.3249 70.41 98.4549 69.66 98.7149 69.14C98.9749 68.6 99.5549 68.12 100.455 67.7C101.195 67.34 101.685 66.99 101.925 66.65C102.185 66.31 102.315 65.82 102.315 65.18C102.315 64.72 102.245 64.36 102.105 64.1C101.985 63.84 101.745 63.71 101.385 63.71C101.065 63.71 100.815 63.82 100.635 64.04C100.475 64.26 100.395 64.63 100.395 65.15V66.32H98.2949V65.48C98.2949 64.26 98.5449 63.41 99.0449 62.93C99.5449 62.43 100.345 62.18 101.445 62.18C102.325 62.18 102.985 62.3 103.425 62.54C103.885 62.78 104.185 63.11 104.325 63.53C104.485 63.95 104.565 64.41 104.565 64.91C104.565 65.67 104.465 66.28 104.265 66.74C104.085 67.2 103.825 67.57 103.485 67.85C103.145 68.13 102.755 68.4 102.315 68.66C101.615 69.06 101.135 69.38 100.875 69.62C100.615 69.84 100.445 70.07 100.365 70.31C100.305 70.45 100.265 70.59 100.245 70.73C100.245 70.87 100.245 71 100.245 71.12H104.535V72.89H98.3249Z" fill="#A3887B"/>
</svg>
