<?xml version="1.0" encoding="UTF-8"?>
<svg xmlns="http://www.w3.org/2000/svg" xmlns:xlink="http://www.w3.org/1999/xlink" width="108px" height="860px" viewBox="0 0 108 860" version="1.1">
<g id="surface1">
<path style=" stroke:none;fill-rule:evenodd;fill:rgb(85.098039%,80.784314%,78.823529%);fill-opacity:1;" d="M -0.25 -0.25 C 0.75 -0.25 1.75 -0.25 2.75 -0.25 C 4.417969 3.082031 6.082031 6.417969 7.75 9.75 C 7.835938 10.246094 7.667969 10.578125 7.25 10.75 C 5.507812 7.265625 3.507812 3.929688 1.25 0.75 C 1.082031 143.75 0.917969 286.75 0.75 429.75 C 0.917969 572.75 1.082031 715.75 1.25 858.75 C 3.554688 855.304688 5.71875 851.804688 7.75 848.25 C 7.75 848.75 7.75 849.25 7.75 849.75 C 6.082031 853.085938 4.417969 856.414062 2.75 859.75 C 1.75 859.75 0.75 859.75 -0.25 859.75 C -0.25 573.085938 -0.25 286.417969 -0.25 -0.25 Z M -0.25 -0.25 "/>
<path style=" stroke:none;fill-rule:evenodd;fill:rgb(92.54902%,90.196078%,89.411765%);fill-opacity:1;" d="M 7.25 10.75 C 49.039062 89.859375 77.453125 173.695312 92.5 262.25 C 114.835938 392.496094 111.167969 521.996094 81.5 650.75 C 65.269531 719.84375 40.6875 785.679688 7.75 848.25 C 5.71875 851.804688 3.554688 855.304688 1.25 858.75 C 1.082031 715.75 0.917969 572.75 0.75 429.75 C 0.917969 286.75 1.082031 143.75 1.25 0.75 C 3.507812 3.929688 5.507812 7.265625 7.25 10.75 Z M 7.25 10.75 "/>
<path style=" stroke:none;fill-rule:evenodd;fill:rgb(72.941176%,69.019608%,67.45098%);fill-opacity:1;" d="M 7.75 9.75 C 37.839844 65.921875 60.921875 124.921875 77 186.75 C 95.320312 257.503906 105.570312 329.335938 107.75 402.25 C 107.75 420.582031 107.75 438.917969 107.75 457.25 C 104.914062 561.839844 85.164062 663.175781 48.5 761.25 C 36.800781 791.648438 23.214844 821.148438 7.75 849.75 C 7.75 849.25 7.75 848.75 7.75 848.25 C 40.6875 785.679688 65.269531 719.84375 81.5 650.75 C 111.167969 521.996094 114.835938 392.496094 92.5 262.25 C 77.453125 173.695312 49.039062 89.859375 7.25 10.75 C 7.667969 10.578125 7.835938 10.246094 7.75 9.75 Z M 7.75 9.75 "/>
<path style=" stroke:none;fill-rule:evenodd;fill:rgb(63.529412%,53.333333%,47.843137%);fill-opacity:1;" d="M 51.75 418.25 C 52.84375 418.253906 53.257812 418.753906 53 419.75 C 49.660156 423.007812 46.410156 426.339844 43.25 429.75 C 46.410156 433.160156 49.660156 436.492188 53 439.75 C 53.300781 440.484375 53.050781 440.984375 52.25 441.25 C 48.25 437.582031 44.417969 433.75 40.75 429.75 C 44.425781 425.90625 48.09375 422.074219 51.75 418.25 Z M 51.75 418.25 "/>
</g>
</svg>
