<?xml version="1.0" encoding="UTF-8"?>
<svg xmlns="http://www.w3.org/2000/svg" xmlns:xlink="http://www.w3.org/1999/xlink" width="108px" height="860px" viewBox="0 0 108 860" version="1.1">
<g id="surface1">
<path style=" stroke:none;fill-rule:evenodd;fill:rgb(85.098039%,80.784314%,78.823529%);fill-opacity:1;" d="M 104.75 -0.25 C 105.75 -0.25 106.75 -0.25 107.75 -0.25 C 107.75 286.417969 107.75 573.085938 107.75 859.75 C 106.75 859.75 105.75 859.75 104.75 859.75 C 103.082031 856.414062 101.417969 853.085938 99.75 849.75 C 99.75 849.25 99.75 848.75 99.75 848.25 C 101.78125 851.804688 103.945312 855.304688 106.25 858.75 C 106.417969 715.75 106.582031 572.75 106.75 429.75 C 106.582031 286.75 106.417969 143.75 106.25 0.75 C 103.953125 4.179688 101.785156 7.679688 99.75 11.25 C 99.75 10.75 99.75 10.25 99.75 9.75 C 101.417969 6.417969 103.082031 3.082031 104.75 -0.25 Z M 104.75 -0.25 "/>
<path style=" stroke:none;fill-rule:evenodd;fill:rgb(92.54902%,90.196078%,89.411765%);fill-opacity:1;" d="M 99.75 848.25 C 50.5625 753.425781 19.8125 652.753906 7.5 546.25 C -5.957031 432.664062 0.210938 320.164062 26 208.75 C 42.21875 139.667969 66.804688 73.835938 99.75 11.25 C 101.785156 7.679688 103.953125 4.179688 106.25 0.75 C 106.417969 143.75 106.582031 286.75 106.75 429.75 C 106.582031 572.75 106.417969 715.75 106.25 858.75 C 103.945312 855.304688 101.78125 851.804688 99.75 848.25 Z M 99.75 848.25 "/>
<path style=" stroke:none;fill-rule:evenodd;fill:rgb(72.941176%,69.019608%,67.45098%);fill-opacity:1;" d="M 99.75 9.75 C 99.75 10.25 99.75 10.75 99.75 11.25 C 66.804688 73.835938 42.21875 139.667969 26 208.75 C 0.210938 320.164062 -5.957031 432.664062 7.5 546.25 C 19.8125 652.753906 50.5625 753.425781 99.75 848.25 C 99.75 848.75 99.75 849.25 99.75 849.75 C 69.660156 793.574219 46.578125 734.574219 30.5 672.75 C 12.179688 601.996094 1.929688 530.164062 -0.25 457.25 C -0.25 438.917969 -0.25 420.582031 -0.25 402.25 C 2.585938 297.65625 22.335938 196.324219 59 98.25 C 70.699219 67.851562 84.285156 38.351562 99.75 9.75 Z M 99.75 9.75 "/>
<path style=" stroke:none;fill-rule:evenodd;fill:rgb(63.529412%,53.333333%,47.843137%);fill-opacity:1;" d="M 54.75 418.25 C 59.046875 421.710938 63.046875 425.542969 66.75 429.75 C 63.082031 433.75 59.25 437.582031 55.25 441.25 C 54.449219 440.984375 54.199219 440.484375 54.5 439.75 C 57.839844 436.492188 61.089844 433.160156 64.25 429.75 C 61.089844 426.339844 57.839844 423.007812 54.5 419.75 C 54.265625 419.210938 54.347656 418.710938 54.75 418.25 Z M 54.75 418.25 "/>
</g>
</svg>
