<svg width="277" height="80" viewBox="0 0 277 80" fill="none" xmlns="http://www.w3.org/2000/svg">
<rect width="80" height="80" rx="1" fill="#DACFCA"/>
<mask id="mask0_11_753" style="mask-type:alpha" maskUnits="userSpaceOnUse" x="0" y="0" width="80" height="80">
<rect width="80" height="80" rx="1" fill="#DACFCA"/>
</mask>
<g mask="url(#mask0_11_753)">
<circle cx="-30" cy="40" r="50" fill="#A3887B"/>
</g>
<path d="M51.26 33V15.27H54.74V22.98H55.88L58.88 15.27H62.63L59.03 23.79L62.72 33H58.94L56.03 25.29H54.74V33H51.26ZM63.1927 33V31.2C63.5727 31.2 63.9227 30.98 64.2427 30.54C64.5627 30.1 64.7427 29.56 64.7827 28.92L65.7127 18.15H74.8927V33H71.3827V20.58H69.1927L68.2627 29.82C68.2227 30.14 68.1827 30.49 68.1427 30.87C68.1027 31.23 67.9927 31.57 67.8127 31.89C67.6327 32.21 67.3527 32.48 66.9727 32.7C66.6127 32.9 66.0827 33 65.3827 33H63.1927ZM78.8398 36.51C78.2798 36.51 77.7398 36.46 77.2198 36.36C76.6998 36.28 76.2898 36.2 75.9898 36.12V34.32C76.1098 34.36 76.2798 34.4 76.4998 34.44C76.7398 34.48 76.9898 34.5 77.2498 34.5C77.5098 34.5 77.7998 34.46 78.1198 34.38C78.4598 34.3 78.6898 34.04 78.8098 33.6C78.8498 33.42 78.8898 33.23 78.9298 33.03C78.9898 32.83 78.9898 32.59 78.9298 32.31L75.8998 18.15H79.4398L81.2398 29.73H81.2698L83.0698 18.15H86.3098L83.4298 31.71C83.0898 33.41 82.5498 34.63 81.8098 35.37C81.0698 36.13 80.0798 36.51 78.8398 36.51ZM91.7888 33.21C90.8688 33.21 90.0588 33.11 89.3588 32.91C88.6788 32.69 88.1488 32.31 87.7688 31.77C87.3888 31.21 87.1988 30.44 87.1988 29.46L87.1688 18.87C87.1688 17.85 87.2588 17 87.4388 16.32C87.6388 15.64 87.9788 15.13 88.4588 14.79C88.9388 14.45 89.6088 14.28 90.4688 14.28C90.8688 14.28 91.3588 14.25 91.9388 14.19C92.5188 14.13 93.0888 14.06 93.6488 13.98C94.2088 13.9 94.6888 13.81 95.0888 13.71C95.4888 13.61 95.7088 13.52 95.7488 13.44V14.82C95.7488 15.16 95.5688 15.47 95.2088 15.75C94.8688 16.03 94.2888 16.18 93.4688 16.2H93.1088C92.3888 16.2 91.8488 16.28 91.4888 16.44C91.1488 16.6 90.9188 16.85 90.7988 17.19C90.6788 17.53 90.6088 17.94 90.5888 18.42V19.77C90.7688 19.45 91.0588 19.15 91.4588 18.87C91.8588 18.57 92.4488 18.42 93.2288 18.42C93.8888 18.42 94.4688 18.53 94.9688 18.75C95.4888 18.95 95.8988 19.31 96.1988 19.83C96.5188 20.33 96.6788 21.05 96.6788 21.99V28.56C96.6788 29.56 96.5788 30.37 96.3788 30.99C96.1988 31.59 95.9088 32.05 95.5088 32.37C95.1288 32.69 94.6288 32.91 94.0088 33.03C93.3888 33.15 92.6488 33.21 91.7888 33.21ZM91.9388 31.2C92.3188 31.2 92.5988 31.13 92.7788 30.99C92.9588 30.83 93.0788 30.62 93.1388 30.36C93.2188 30.08 93.2588 29.76 93.2588 29.4V22.32C93.2588 21.96 93.2288 21.65 93.1688 21.39C93.1088 21.13 92.9788 20.93 92.7788 20.79C92.5988 20.65 92.3188 20.58 91.9388 20.58C91.6388 20.58 91.3988 20.62 91.2188 20.7C91.0388 20.78 90.8988 20.9 90.7988 21.06C90.6988 21.22 90.6388 21.39 90.6188 21.57C90.5988 21.75 90.5888 21.94 90.5888 22.14V29.4C90.5888 29.76 90.6188 30.08 90.6788 30.36C90.7588 30.62 90.8888 30.83 91.0688 30.99C91.2688 31.13 91.5588 31.2 91.9388 31.2ZM98.5388 33V18.15H101.959V24H104.659V18.15H108.019V33H104.659V26.58H101.959V33H98.5388ZM109.934 33V18.18H113.354V22.8H115.994C116.674 22.8 117.264 22.91 117.764 23.13C118.284 23.33 118.684 23.69 118.964 24.21C119.264 24.71 119.414 25.42 119.414 26.34V28.14C119.414 29.14 119.324 29.96 119.144 30.6C118.984 31.24 118.744 31.73 118.424 32.07C118.104 32.41 117.694 32.65 117.194 32.79C116.714 32.93 116.144 33 115.484 33H109.934ZM113.354 31.2H114.704C115.084 31.2 115.364 31.13 115.544 30.99C115.724 30.85 115.844 30.64 115.904 30.36C115.964 30.08 115.994 29.76 115.994 29.4V26.88C115.994 26.46 115.964 26.11 115.904 25.83C115.864 25.53 115.754 25.31 115.574 25.17C115.394 25.01 115.104 24.93 114.704 24.93H113.354V31.2ZM121.514 33V18.15H124.934V33H121.514ZM127.045 33V18.15H130.045V26.85L133.465 18.15H136.465V33H133.465V23.49C132.845 25.09 132.235 26.68 131.635 28.26C131.035 29.82 130.425 31.4 129.805 33H127.045ZM131.695 16.65C130.775 16.65 130.075 16.48 129.595 16.14C129.115 15.8 128.785 15.4 128.605 14.94C128.445 14.46 128.355 14.03 128.335 13.65H130.195C130.235 14.11 130.405 14.45 130.705 14.67C131.005 14.89 131.345 15 131.725 15C132.145 15 132.495 14.9 132.775 14.7C133.075 14.48 133.245 14.13 133.285 13.65H135.145C135.145 14.17 135.025 14.66 134.785 15.12C134.545 15.56 134.175 15.93 133.675 16.23C133.195 16.51 132.535 16.65 131.695 16.65ZM142.942 36.42V30.99H144.022C144.242 30.95 144.492 30.84 144.772 30.66C145.052 30.46 145.302 30.16 145.522 29.76C145.762 29.34 145.922 28.79 146.002 28.11L147.082 18.15H155.632V30.99H158.002V36.42H155.152V33.66H145.792V36.42H142.942ZM148.462 30.99H152.002V20.61H150.202L149.362 27.93C149.282 28.51 149.182 29.11 149.062 29.73C148.942 30.35 148.742 30.77 148.462 30.99ZM164.154 33.24C163.154 33.24 162.294 33.12 161.574 32.88C160.874 32.64 160.344 32.17 159.984 31.47C159.624 30.75 159.444 29.7 159.444 28.32V22.02C159.444 20.48 159.834 19.41 160.614 18.81C161.394 18.19 162.574 17.88 164.154 17.88C165.734 17.88 166.904 18.19 167.664 18.81C168.444 19.41 168.834 20.48 168.834 22.02V28.32C168.834 29.7 168.654 30.74 168.294 31.44C167.954 32.14 167.434 32.62 166.734 32.88C166.034 33.12 165.174 33.24 164.154 33.24ZM164.154 31.2C164.594 31.2 164.914 31.08 165.114 30.84C165.314 30.58 165.414 30.12 165.414 29.46V21.66C165.414 21.04 165.314 20.6 165.114 20.34C164.934 20.06 164.614 19.92 164.154 19.92C163.714 19.92 163.384 20.05 163.164 20.31C162.964 20.57 162.864 21.02 162.864 21.66V29.46C162.864 30.12 162.964 30.58 163.164 30.84C163.384 31.08 163.714 31.2 164.154 31.2ZM170.697 33V18.15H174.927L177.267 28.71L179.607 18.15H183.807V33H181.017V22.59L178.437 33H176.097L173.487 22.59V33H170.697ZM61.46 62.91L57.53 57.24L61.55 51.45H64.64L60.62 57.24L64.55 62.91H61.46ZM55.01 62.91L51.08 57.24L55.1 51.45H58.19L54.2 57.24L58.1 62.91H55.01ZM77.7024 66.36C76.7224 66.36 75.8524 66.24 75.0924 66C74.3324 65.78 73.7324 65.31 73.2924 64.59C72.8724 63.85 72.6624 62.75 72.6624 61.29V58.11H70.2024V66H66.7224V48.27H70.2024V55.53H72.6624V52.02C72.6624 50.98 72.8724 50.17 73.2924 49.59C73.7324 48.99 74.3324 48.58 75.0924 48.36C75.8524 48.12 76.7224 48 77.7024 48C78.7224 48 79.5924 48.12 80.3124 48.36C81.0524 48.6 81.6224 49.01 82.0224 49.59C82.4224 50.17 82.6224 50.98 82.6224 52.02V61.29C82.6224 62.75 82.4224 63.85 82.0224 64.59C81.6224 65.31 81.0524 65.78 80.3124 66C79.5724 66.24 78.7024 66.36 77.7024 66.36ZM77.7024 64.32C77.9824 64.32 78.2224 64.28 78.4224 64.2C78.6424 64.1 78.8124 63.93 78.9324 63.69C79.0724 63.45 79.1424 63.1 79.1424 62.64V51.84C79.1424 51.36 79.0724 51 78.9324 50.76C78.8124 50.52 78.6424 50.36 78.4224 50.28C78.2224 50.2 77.9824 50.16 77.7024 50.16C77.4424 50.16 77.2024 50.2 76.9824 50.28C76.7624 50.36 76.5924 50.52 76.4724 50.76C76.3524 51 76.2924 51.36 76.2924 51.84V62.64C76.2924 63.1 76.3524 63.45 76.4724 63.69C76.5924 63.93 76.7624 64.1 76.9824 64.2C77.2024 64.28 77.4424 64.32 77.7024 64.32ZM84.1135 66L87.3235 58.11L84.0535 51.15H87.4735L90.0835 57.33H91.1635V51.15H94.5835V57.33H95.6335L98.2435 51.15H101.694L98.4235 58.11L101.634 66H97.8535L95.5135 59.37H94.5835V66H91.1635V59.37H90.2335L87.8935 66H84.1135ZM103.138 66V51.15H106.558V57H109.258V51.15H112.618V66H109.258V59.58H106.558V66H103.138ZM117.384 66.24C116.864 66.24 116.374 66.17 115.914 66.03C115.474 65.89 115.104 65.6 114.804 65.16C114.524 64.7 114.384 64.03 114.384 63.15V61.17C114.384 60.23 114.654 59.47 115.194 58.89C115.754 58.29 116.624 57.78 117.804 57.36C118.424 57.1 118.914 56.87 119.274 56.67C119.634 56.47 119.894 56.23 120.054 55.95C120.214 55.65 120.294 55.25 120.294 54.75V53.94C120.294 53.62 120.244 53.38 120.144 53.22C120.044 53.04 119.894 52.91 119.694 52.83C119.514 52.75 119.304 52.71 119.064 52.71C118.544 52.71 118.204 52.89 118.044 53.25C117.884 53.59 117.804 54.17 117.804 54.99V56.25H114.714V54.66C114.714 53.92 114.814 53.27 115.014 52.71C115.234 52.13 115.654 51.68 116.274 51.36C116.894 51.02 117.824 50.85 119.064 50.85C120.324 50.85 121.294 50.97 121.974 51.21C122.654 51.43 123.124 51.79 123.384 52.29C123.644 52.77 123.774 53.43 123.774 54.27V66H120.354V64.35C120.194 64.93 119.824 65.39 119.244 65.73C118.684 66.07 118.064 66.24 117.384 66.24ZM118.854 63.99C119.394 63.99 119.764 63.79 119.964 63.39C120.184 62.97 120.294 62.39 120.294 61.65V57.84C120.174 58.04 119.974 58.22 119.694 58.38C119.414 58.52 119.134 58.68 118.854 58.86C118.474 59.12 118.184 59.39 117.984 59.67C117.784 59.93 117.684 60.3 117.684 60.78V62.31C117.684 62.73 117.734 63.07 117.834 63.33C117.934 63.57 118.074 63.74 118.254 63.84C118.434 63.94 118.634 63.99 118.854 63.99ZM125.277 66L127.017 61.11C127.277 60.43 127.557 59.95 127.857 59.67C128.177 59.39 128.537 59.23 128.937 59.19C128.017 59.11 127.327 58.82 126.867 58.32C126.427 57.82 126.207 57.01 126.207 55.89V54.84C126.207 53.6 126.507 52.68 127.107 52.08C127.727 51.46 128.627 51.15 129.807 51.15H135.927V66H132.297V59.55L131.337 60.09C131.057 60.53 130.807 61.03 130.587 61.59C130.387 62.15 130.187 62.77 129.987 63.45L129.177 66H125.277ZM131.157 58.2H132.297V53.04H130.797C130.437 53.04 130.157 53.25 129.957 53.67C129.777 54.07 129.687 54.54 129.687 55.08V55.71C129.687 56.67 129.817 57.33 130.077 57.69C130.337 58.03 130.697 58.2 131.157 58.2ZM142.414 66L145.624 58.11L142.354 51.15H145.774L148.384 57.33H149.464V51.15H152.884V57.33H153.934L156.544 51.15H159.994L156.724 58.11L159.934 66H156.154L153.814 59.37H152.884V66H149.464V59.37H148.534L146.194 66H142.414ZM166.089 66.24C165.049 66.24 164.169 66.13 163.449 65.91C162.749 65.67 162.219 65.21 161.859 64.53C161.499 63.83 161.319 62.78 161.319 61.38V54.69C161.319 53.23 161.709 52.23 162.489 51.69C163.269 51.15 164.449 50.88 166.029 50.88C167.589 50.88 168.759 51.15 169.539 51.69C170.319 52.23 170.709 53.23 170.709 54.69V58.74H164.739V62.79C164.739 63.39 164.829 63.81 165.009 64.05C165.209 64.29 165.559 64.41 166.059 64.41C166.519 64.41 166.829 64.3 166.989 64.08C167.169 63.84 167.259 63.41 167.259 62.79V60.42H170.709V61.35C170.709 62.75 170.529 63.8 170.169 64.5C169.809 65.2 169.279 65.67 168.579 65.91C167.899 66.13 167.069 66.24 166.089 66.24ZM164.739 57.18H167.259V54.51C167.259 53.93 167.169 53.52 166.989 53.28C166.829 53.04 166.509 52.92 166.029 52.92C165.549 52.92 165.209 53.04 165.009 53.28C164.829 53.52 164.739 53.93 164.739 54.51V57.18ZM172.426 66V51.15H176.656L178.996 61.71L181.336 51.15H185.536V66H182.746V55.59L180.166 66H177.826L175.216 55.59V66H172.426ZM193.334 66V60.99C193.194 61.59 192.864 62.07 192.344 62.43C191.824 62.79 191.224 62.97 190.544 62.97C189.624 62.97 188.924 62.82 188.444 62.52C187.964 62.2 187.644 61.75 187.484 61.17C187.324 60.57 187.244 59.85 187.244 59.01V51.15H190.664V59.01C190.664 59.55 190.744 59.96 190.904 60.24C191.084 60.52 191.404 60.66 191.864 60.66C192.204 60.66 192.474 60.58 192.674 60.42C192.874 60.26 193.014 60.1 193.094 59.94V51.15H196.514V66H193.334ZM200.51 69.51C199.95 69.51 199.41 69.46 198.89 69.36C198.37 69.28 197.96 69.2 197.66 69.12V67.32C197.78 67.36 197.95 67.4 198.17 67.44C198.41 67.48 198.66 67.5 198.92 67.5C199.18 67.5 199.47 67.46 199.79 67.38C200.13 67.3 200.36 67.04 200.48 66.6C200.52 66.42 200.56 66.23 200.6 66.03C200.66 65.83 200.66 65.59 200.6 65.31L197.57 51.15H201.11L202.91 62.73H202.94L204.74 51.15H207.98L205.1 64.71C204.76 66.41 204.22 67.63 203.48 68.37C202.74 69.13 201.75 69.51 200.51 69.51ZM208.479 66L211.689 58.11L208.419 51.15H211.839L214.449 57.33H215.529V51.15H218.949V57.33H219.999L222.609 51.15H226.059L222.789 58.11L225.999 66H222.219L219.879 59.37H218.949V66H215.529V59.37H214.599L212.259 66H208.479ZM227.504 66V51.15H230.504V59.85L233.924 51.15H236.924V66H233.924V56.49C233.304 58.09 232.694 59.68 232.094 61.26C231.494 62.82 230.884 64.4 230.264 66H227.504ZM238.871 66V51.15H242.291V57H244.991V51.15H248.351V66H244.991V59.58H242.291V66H238.871ZM253.116 66.24C252.596 66.24 252.106 66.17 251.646 66.03C251.206 65.89 250.836 65.6 250.536 65.16C250.256 64.7 250.116 64.03 250.116 63.15V61.17C250.116 60.23 250.386 59.47 250.926 58.89C251.486 58.29 252.356 57.78 253.536 57.36C254.156 57.1 254.646 56.87 255.006 56.67C255.366 56.47 255.626 56.23 255.786 55.95C255.946 55.65 256.026 55.25 256.026 54.75V53.94C256.026 53.62 255.976 53.38 255.876 53.22C255.776 53.04 255.626 52.91 255.426 52.83C255.246 52.75 255.036 52.71 254.796 52.71C254.276 52.71 253.936 52.89 253.776 53.25C253.616 53.59 253.536 54.17 253.536 54.99V56.25H250.446V54.66C250.446 53.92 250.546 53.27 250.746 52.71C250.966 52.13 251.386 51.68 252.006 51.36C252.626 51.02 253.556 50.85 254.796 50.85C256.056 50.85 257.026 50.97 257.706 51.21C258.386 51.43 258.856 51.79 259.116 52.29C259.376 52.77 259.506 53.43 259.506 54.27V66H256.086V64.35C255.926 64.93 255.556 65.39 254.976 65.73C254.416 66.07 253.796 66.24 253.116 66.24ZM254.586 63.99C255.126 63.99 255.496 63.79 255.696 63.39C255.916 62.97 256.026 62.39 256.026 61.65V57.84C255.906 58.04 255.706 58.22 255.426 58.38C255.146 58.52 254.866 58.68 254.586 58.86C254.206 59.12 253.916 59.39 253.716 59.67C253.516 59.93 253.416 60.3 253.416 60.78V62.31C253.416 62.73 253.466 63.07 253.566 63.33C253.666 63.57 253.806 63.74 253.986 63.84C254.166 63.94 254.366 63.99 254.586 63.99ZM268.089 62.91L271.989 57.24L267.969 51.45H271.059L275.079 57.24L271.149 62.91H268.089ZM261.639 62.91L265.539 57.24L261.519 51.45H264.609L268.629 57.24L264.699 62.91H261.639Z" fill="#2D3047"/>
</svg>
